<svg width="22" height="22" viewBox="0 0 22 22" fill="none" xmlns="http://www.w3.org/2000/svg">
<path fill-rule="evenodd" clip-rule="evenodd" d="M15.1068 9.1838C15.4511 8.83955 15.4511 8.2814 15.1068 7.93715C14.7626 7.59289 14.2044 7.59289 13.8602 7.93715L10.0759 11.7214L8.49545 10.1409C8.15119 9.79669 7.59305 9.79669 7.24879 10.1409C6.90454 10.4852 6.90454 11.0433 7.24879 11.3876L9.45259 13.5914C9.79684 13.9356 10.355 13.9356 10.6992 13.5914C10.6994 13.5912 10.6996 13.591 10.6998 13.5908L15.1068 9.1838Z" fill="#F9F9F9"/>
<path d="M1.26073 11.2051C1.26073 13.3628 1.37749 15.0365 1.66757 16.3417C1.95543 17.637 2.4021 18.5147 3.02496 19.1376C3.64782 19.7604 4.52557 20.2071 5.82081 20.495C7.12605 20.785 8.79976 20.9018 10.9574 20.9018C13.1151 20.9018 14.7888 20.785 16.0941 20.495C17.3893 20.2071 18.267 19.7604 18.8899 19.1376C19.5128 18.5147 19.9594 17.637 20.2473 16.3417C20.5374 15.0365 20.6541 13.3628 20.6541 11.2051C20.6541 9.04744 20.5374 7.37373 20.2473 6.06849C19.9594 4.77325 19.5128 3.8955 18.8899 3.27264C18.267 2.64978 17.3893 2.20311 16.0941 1.91525C14.7888 1.62517 13.1151 1.50841 10.9574 1.50841C8.79976 1.50841 7.12605 1.62517 5.82081 1.91525C4.52557 2.20311 3.64782 2.64978 3.02496 3.27264C2.4021 3.8955 1.95543 4.77325 1.66757 6.06849C1.37749 7.37373 1.26073 9.04744 1.26073 11.2051Z" stroke="#F9F9F9" stroke-width="1.76304" stroke-linecap="round" stroke-linejoin="round"/>
</svg>
