<svg width="22" height="20" viewBox="0 0 22 20" fill="none" xmlns="http://www.w3.org/2000/svg">
<path d="M15.365 9.14795L10.9574 13.5555M10.9574 13.5555L6.54981 9.14795M10.9574 13.5555L10.9574 1.21429" stroke="#F9F9F9" stroke-width="1.76304" stroke-linecap="round" stroke-linejoin="round"/>
<path fill-rule="evenodd" clip-rule="evenodd" d="M4.7868 5.00137C4.7868 4.41309 4.23031 3.97439 3.68372 4.19188C1.09056 5.22372 0.379211 7.36864 0.379211 11.5332C0.379211 18.2801 2.24627 19.7262 10.9574 19.7262C19.6686 19.7262 21.5356 18.2801 21.5356 11.5332C21.5356 7.36864 20.8243 5.22372 18.2311 4.19188C17.6845 3.97439 17.1281 4.41309 17.1281 5.00137V5.00137C17.1281 5.40022 17.3933 5.74239 17.7574 5.90509C18.0336 6.0285 18.2543 6.16155 18.4337 6.30046C19.2604 6.94077 19.7726 8.16254 19.7726 11.5332C19.7726 14.9038 19.2604 16.1256 18.4337 16.7659C17.9722 17.1233 17.2372 17.442 15.9862 17.6573C14.7357 17.8726 13.1048 17.9631 10.9574 17.9631C8.81009 17.9631 7.17911 17.8726 5.92863 17.6573C4.67769 17.442 3.94267 17.1233 3.4812 16.7659C2.65447 16.1256 2.14225 14.9038 2.14225 11.5332C2.14225 8.16254 2.65447 6.94077 3.4812 6.30046C3.66055 6.16155 3.88121 6.0285 4.15742 5.90509C4.52157 5.74239 4.7868 5.40022 4.7868 5.00137V5.00137Z" fill="#F9F9F9"/>
</svg>
