<svg width="22" height="23" viewBox="0 0 22 23" fill="none" xmlns="http://www.w3.org/2000/svg">
<path d="M1.26073 11.5222C1.26073 13.6799 1.37749 15.3536 1.66757 16.6589C1.95543 17.9541 2.4021 18.8319 3.02496 19.4547C3.64782 20.0776 4.52557 20.5242 5.82081 20.8121C7.12605 21.1022 8.79976 21.2189 10.9574 21.2189C13.1151 21.2189 14.7888 21.1022 16.0941 20.8121C17.3893 20.5242 18.267 20.0776 18.8899 19.4547C19.5128 18.8319 19.9594 17.9541 20.2473 16.6589C20.5374 15.3536 20.6541 13.6799 20.6541 11.5222C20.6541 9.36458 20.5374 7.69087 20.2473 6.38562C19.9594 5.09039 19.5128 4.21264 18.8899 3.58978C18.267 2.96692 17.3893 2.52025 16.0941 2.23239C14.7888 1.94231 13.1151 1.82555 10.9574 1.82555C8.79976 1.82555 7.12605 1.94231 5.82081 2.23239C4.52557 2.52025 3.64782 2.96692 3.02496 3.58978C2.4021 4.21264 1.95543 5.09039 1.66757 6.38562C1.37749 7.69087 1.26073 9.36458 1.26073 11.5222Z" stroke="#F9F9F9" stroke-width="1.76304" stroke-linecap="round" stroke-linejoin="round"/>
<path d="M10.9574 6.23315C10.9574 6.23315 10.9574 9.75923 10.9574 10.6407C10.9574 11.5223 10.9574 11.5223 11.8389 11.5223C12.7204 11.5223 16.2465 11.5223 16.2465 11.5223" stroke="#F9F9F9" stroke-width="1.76304" stroke-linecap="round" stroke-linejoin="round"/>
</svg>
