<svg width="22" height="22" viewBox="0 0 22 22" fill="none" xmlns="http://www.w3.org/2000/svg">
<path d="M10.9849 1.0199C11.8976 1.0199 13.331 5.16275 13.8484 6.75565C13.9671 7.12111 14.3022 7.37286 14.6862 7.38589C16.348 7.44225 20.6541 7.68217 20.6541 8.65511C20.6541 9.61422 17.5854 12.0259 16.3308 12.9718C16.0198 13.2063 15.8923 13.6111 16.012 13.9818C16.5227 15.5627 17.7494 19.6625 16.9621 20.3089C16.1869 20.9452 12.8747 18.4286 11.5291 17.3532C11.1948 17.086 10.7198 17.0856 10.3854 17.3527C9.03879 18.4279 5.72796 20.9453 5.00777 20.3089C4.2752 19.6614 5.43751 15.5487 5.91725 13.9737C6.02901 13.6068 5.90034 13.2101 5.59401 12.9793C4.34571 12.0386 1.26074 9.61676 1.26074 8.65511C1.26074 7.68117 5.57576 7.44176 7.23379 7.38571C7.61526 7.37282 7.94903 7.12408 8.06972 6.76197C8.59909 5.17375 10.071 1.0199 10.9849 1.0199Z" stroke="#F9F9F9" stroke-width="1.76304" stroke-linecap="round" stroke-linejoin="round"/>
</svg>
