<svg width="22" height="22" viewBox="0 0 22 22" fill="none" xmlns="http://www.w3.org/2000/svg">
<path d="M1.26073 11.0107C1.26073 13.1683 1.37749 14.842 1.66757 16.1473C1.95543 17.4425 2.4021 18.3203 3.02496 18.9431C3.64782 19.566 4.52557 20.0126 5.82081 20.3005C7.12605 20.5906 8.79976 20.7073 10.9574 20.7073C13.1151 20.7073 14.7888 20.5906 16.0941 20.3005C17.3893 20.0126 18.267 19.566 18.8899 18.9431C19.5128 18.3203 19.9594 17.4425 20.2473 16.1473C20.5374 14.842 20.6541 13.1683 20.6541 11.0107C20.6541 8.85298 20.5374 7.17928 20.2473 5.87403C19.9594 4.57879 19.5128 3.70105 18.8899 3.07818C18.267 2.45532 17.3893 2.00865 16.0941 1.7208C14.7888 1.43072 13.1151 1.31395 10.9574 1.31395C8.79976 1.31395 7.12605 1.43072 5.82081 1.7208C4.52557 2.00865 3.64782 2.45532 3.02496 3.07818C2.4021 3.70105 1.95543 4.57879 1.66757 5.87403C1.37749 7.17928 1.26073 8.85298 1.26073 11.0107Z" stroke="#F9F9F9" stroke-width="1.76304" stroke-linecap="round" stroke-linejoin="round"/>
<path d="M10.9574 7.48462V11.0107M10.9574 14.5368V11.0107M10.9574 11.0107H14.4835H7.43134" stroke="#F9F9F9" stroke-width="1.76304" stroke-linecap="round" stroke-linejoin="round"/>
</svg>
