<svg width="22" height="24" viewBox="0 0 22 24" fill="none" xmlns="http://www.w3.org/2000/svg">
<path d="M1.26073 11.958C1.26073 14.2084 1.31935 15.812 1.50856 17.005C1.69583 18.1859 1.99865 18.8768 2.42429 19.3665C2.85771 19.8652 3.50167 20.2525 4.57439 20.6623C5.37211 20.967 6.33066 21.258 7.52714 21.6212C7.95874 21.7522 8.42129 21.8926 8.91842 22.0465C10.6993 22.5976 11.9746 22.7168 12.89 22.5414C13.7531 22.3761 14.3506 21.9399 14.8033 21.195C15.2821 20.4071 15.6072 19.2549 15.8029 17.6752C15.9971 16.1069 16.0549 14.201 16.0549 11.958C16.0549 9.71503 15.9971 7.80913 15.8029 6.24084C15.6072 4.6612 15.2821 3.50895 14.8033 2.72113C14.3506 1.97619 13.7531 1.54004 12.89 1.37468C11.9746 1.19931 10.6993 1.31852 8.91841 1.86961C8.42135 2.02342 7.95885 2.16381 7.52731 2.2948C6.33075 2.658 5.37214 2.94898 4.57438 3.25373C3.50167 3.66352 2.85771 4.05087 2.4243 4.5495C1.99865 5.03919 1.69583 5.73014 1.50856 6.91101C1.31935 8.10407 1.26073 9.7077 1.26073 11.958Z" stroke="#F9F9F9" stroke-width="1.76304" stroke-linecap="round" stroke-linejoin="round"/>
<ellipse cx="0.919845" cy="0.92319" rx="0.919845" ry="0.92319" transform="matrix(-1 0 0 1 13.257 11.1908)" fill="#F9F9F9"/>
<path d="M16.0166 20.2667C20.6158 20.2667 20.6158 19.1442 20.6158 12.1074C20.6158 5.07062 20.6158 3.64929 16.0166 3.64929" stroke="#F9F9F9" stroke-width="1.76304" stroke-linecap="round" stroke-linejoin="round"/>
</svg>
