<svg width="22" height="22" viewBox="0 0 22 22" fill="none" xmlns="http://www.w3.org/2000/svg">
<path d="M7.94701 3.60773C7.80057 4.39342 6.98888 4.86137 6.23778 4.59615C3.03482 3.46516 0.65438 7.60889 3.22688 9.81327C3.83301 10.3327 3.83301 11.2713 3.22688 11.7907C0.654379 13.9951 3.03482 18.1388 6.23778 17.0078C6.98888 16.7426 7.80057 17.2106 7.94701 17.9963C8.56893 21.3328 13.3459 21.3328 13.9678 17.9963C14.1142 17.2106 14.9259 16.7426 15.677 17.0078C18.88 18.1388 21.2604 13.9951 18.6879 11.7907C18.0818 11.2713 18.0818 10.3327 18.6879 9.81327C21.2604 7.60889 18.88 3.46516 15.677 4.59615C14.9259 4.86137 14.1142 4.39342 13.9678 3.60773C13.3459 0.271153 8.56893 0.271153 7.94701 3.60773Z" stroke="#F9F9F9" stroke-width="1.76304" stroke-linejoin="round"/>
<circle cx="3.52607" cy="3.52607" r="2.64455" transform="matrix(-1 0 0 1 14.4835 7.276)" stroke="#F9F9F9" stroke-width="1.76304"/>
</svg>
