<svg width="22" height="22" viewBox="0 0 22 22" fill="none" xmlns="http://www.w3.org/2000/svg">
<path fill-rule="evenodd" clip-rule="evenodd" d="M6.12452 3.03206C6.2526 2.87701 6.70745 2.55887 7.69786 2.29536C8.62047 2.04989 9.76972 1.91539 10.9574 1.91538C12.1452 1.91537 13.2944 2.04984 14.217 2.2953C15.2074 2.55879 15.6622 2.87694 15.7903 3.03199C15.7878 3.02899 15.7884 3.03004 15.7915 3.03588C15.8089 3.06793 15.9042 3.24398 16.001 3.68319C16.1056 4.15823 16.1787 4.78297 16.2165 5.53535C16.2917 7.03669 16.2179 8.85592 16.0831 10.6152C15.8874 13.1691 13.6786 15.1382 10.9574 15.1382C8.23624 15.1382 6.02741 13.1691 5.83174 10.6152C5.69695 8.85587 5.62313 7.03663 5.6984 5.53527C5.73613 4.78289 5.80923 4.15816 5.91386 3.68314C6.01058 3.24406 6.1059 3.06803 6.12327 3.03595L6.12327 3.03595C6.12644 3.0301 6.12702 3.02904 6.12452 3.03206ZM4.76529 1.90921C6.7003 -0.433164 15.2146 -0.433395 17.1496 1.90921C17.5004 2.33389 17.724 3.09728 17.855 4.06263C20.7562 4.58619 21.5356 5.74087 21.5356 8.08603C21.5356 10.5044 20.7068 11.6568 17.5771 12.1566C16.7205 14.967 14.0293 16.9012 10.9574 16.9012C7.88554 16.9012 5.1944 14.967 4.33779 12.1566C1.20804 11.6568 0.379211 10.5044 0.379211 8.08603C0.379211 5.74087 1.15863 4.58619 4.05989 4.06263C4.19089 3.09726 4.41449 2.33386 4.76529 1.90921ZM3.91956 5.89014C3.57745 5.96901 3.30191 6.05595 3.07973 6.14853C2.59557 6.35026 2.4441 6.54308 2.36264 6.6958C2.24994 6.9071 2.14225 7.29802 2.14225 8.08603C2.14225 8.87403 2.24994 9.26495 2.36264 9.47625C2.4441 9.62897 2.59557 9.82179 3.07973 10.0235C3.32771 10.1268 3.64216 10.2232 4.04145 10.3091C3.93628 8.81474 3.87606 7.26429 3.91956 5.89014ZM17.8734 10.3091C18.2727 10.2232 18.5871 10.1268 18.8351 10.0235C19.3193 9.82179 19.4708 9.62897 19.5522 9.47625C19.6649 9.26495 19.7726 8.87403 19.7726 8.08603C19.7726 7.29802 19.6649 6.9071 19.5522 6.6958C19.4708 6.54308 19.3193 6.35026 18.8351 6.14853C18.6129 6.05595 18.3374 5.96902 17.9953 5.89014C18.0388 7.2643 17.9786 8.81474 17.8734 10.3091Z" fill="#F9F9F9"/>
<path d="M10.9574 16.9012V20.4273H13.602H8.31287" stroke="#F9F9F9" stroke-width="1.76304" stroke-linecap="round" stroke-linejoin="round"/>
</svg>
