<svg width="22" height="22" viewBox="0 0 22 22" fill="none" xmlns="http://www.w3.org/2000/svg">
<path d="M14.4835 9.16199L10.0759 13.5696L8.31287 11.8065" stroke="#F9F9F9" stroke-width="1.76304" stroke-linecap="round" stroke-linejoin="round"/>
<path d="M9.36265 2.02043C10.1635 0.964218 11.7514 0.964218 12.5522 2.02043L13.5525 3.33956C13.771 3.62772 14.1279 3.77557 14.4862 3.72632L16.1262 3.50082C17.4394 3.32027 18.5621 4.44304 18.3816 5.7562L18.1561 7.39624C18.1068 7.75449 18.2547 8.11145 18.5429 8.32994L19.862 9.33018C20.9182 10.1311 20.9182 11.7189 19.862 12.5198L18.5428 13.52C18.2547 13.7385 18.1068 14.0954 18.1561 14.4537L18.3816 16.0937C18.5621 17.4069 17.4394 18.5297 16.1262 18.3491L14.4862 18.1236C14.1279 18.0744 13.771 18.2222 13.5525 18.5104L12.5522 19.8295C11.7514 20.8857 10.1635 20.8857 9.36265 19.8295L8.36241 18.5104C8.14392 18.2222 7.78696 18.0744 7.42871 18.1236L5.78867 18.3491C4.47551 18.5297 3.35274 17.4069 3.53329 16.0937L3.75879 14.4537C3.80804 14.0954 3.66019 13.7385 3.37203 13.52L2.0529 12.5198C0.996689 11.7189 0.996689 10.1311 2.0529 9.33018L3.37203 8.32994C3.66019 8.11145 3.80804 7.75449 3.75879 7.39624L3.53329 5.7562C3.35274 4.44304 4.47551 3.32027 5.78867 3.50082L7.42871 3.72632C7.78696 3.77557 8.14392 3.62772 8.36241 3.33956L9.36265 2.02043Z" stroke="#F9F9F9" stroke-width="1.76304"/>
</svg>
