<svg width="22" height="22" viewBox="0 0 22 22" fill="none" xmlns="http://www.w3.org/2000/svg">
<path d="M13.602 20.9548C11.8228 21.0673 10.0722 21.0665 8.31287 20.9526V20.9491V20.9365V20.9237V20.9108V20.8979V20.8849V20.8718V20.8587V20.8455V20.8322V20.8188V20.8054V20.7919V20.7783V20.7646V20.7509V20.7371V20.7233V20.7093V20.6953V20.6813V20.6671V20.6529V20.6387V20.6243V20.6099V20.5955V20.5809V20.5664V20.5517V20.537V20.5222V20.5074V20.4925V20.4775V20.4625V20.4474V20.4322V20.417V20.4018V20.3864V20.3711V20.3556V20.3401V20.3246V20.309V20.2933V20.2776V20.2618V20.246V20.2301V20.2142V20.1982V20.1822V20.1661V20.15V20.1338V20.1176V20.1013V20.0849V20.0686V20.0521V20.0357V20.0191V20.0026V19.986V19.9693V19.9526V19.9358V19.919V19.9022V19.8853V19.8684V19.8514V19.8344V19.8174V19.8003V19.7832V19.766V19.7488V19.7316V19.7143V19.697V19.6796V19.6622V19.6448V19.6273V19.6098V19.5923V19.5747V19.5571V19.5395V19.5218V19.5041V19.4864V19.4686V19.4508V19.433V19.4151V19.3973V19.3793V19.3614V19.3434V19.3254V19.3074V19.2894V19.2713V19.2532V19.2351V19.2169V19.1988V19.1806V19.1623V19.1441V19.1258V19.1076V19.0893V19.0709V19.0526V19.0342V19.0158V18.9974V18.979V18.9606V18.9421V18.9237V18.9052V18.8867V18.8682V18.8496V18.8311V18.8125V18.794V18.7754V18.7568V18.7382V18.7195V18.7009V18.6823V18.6636V18.645V18.6263V18.6076V18.5889V18.5702V18.5516V18.5328V18.5141V18.4954V18.4767V18.458V18.4393V18.4205V18.4018V18.3831V18.3643V18.3456V18.3268V18.3081V18.2894V18.2706V18.2519V18.2332V18.2144V18.1957V18.177V18.1582V18.1395V18.1208V18.1021V18.0834V18.0647V18.046V18.0273V18.0086V17.99V17.9713V17.9527V17.934V17.9154V17.8968V17.8781V17.8595V17.841V17.8224V17.8038V17.7853V17.7667V17.7482V17.7297V17.7112V17.6927V17.6743V17.6558V17.6374V17.619V17.6006V17.5823V17.5639V17.5456V17.5273V17.509V17.4907V17.4725V17.4542V17.436V17.4179V17.3997V17.3816V17.3635V17.3454V17.3273V17.3093V17.2913V17.2733V17.2554V17.2374V17.2196V17.2017V17.1839V17.1661V17.1483V17.1305V17.1128V17.0952V17.0775V17.0599V17.0423V17.0248V17.0073V16.9898V16.9724V16.955V16.9376V16.9203V16.903V16.8857V16.8685V16.8513V16.8342V16.8171V16.8V16.783V16.766V16.7491V16.7322V16.7153V16.6985V16.6818V16.6651V16.6484V16.6318V16.6152V16.5986V16.5822V16.5657V16.5493V16.533V16.5167V16.5004V16.4842V16.4681V16.452V16.4359V16.4199V16.404V16.3881V16.3723V16.3565V16.3407V16.3251V16.3094V16.2939V16.2784V16.2629V16.2475V16.2322V16.2169V16.2017V16.1865V16.1714V16.1564V16.1414V16.1265V16.1116V16.0968V16.0821V16.0674V16.0528V16.0382V16.0238V16.0093V15.995V15.9807V15.9665V15.9523V15.9382V15.9242V15.9103V15.8964V15.8826V15.8688V15.8552V15.8416V15.828V15.8146V15.8012V15.7879V15.7746V15.7615V15.7484V15.7354V15.7224V15.7095V15.6968V15.684V15.6714V15.6588V15.6464V15.634V15.6216V15.6094V15.5972V15.5851V15.5731V15.5612V15.5494V15.5376V15.5259V15.5143V15.5028V15.4914V15.4801V15.4688V15.4576V15.4466V15.4356V15.4247V15.4138V15.4031V15.3925V15.3819V15.3715V15.3611V15.3508V15.3406V15.3305V15.3205V15.3106V15.3008V15.2911V15.2814V15.2719V15.2624V15.2531V15.2438V15.2347V15.2256V15.2167V15.2078V15.199V15.1904V15.1818V15.1734V15.165V15.1567V15.1486V15.1405V15.1326V15.1247V15.117V15.1093V15.1018V15.0943V15.087V15.0798V15.0727V15.0656V15.0587V15.0519V15.0453V15.0387V15.0322V15.0258V15.0196V15.0135V15.0074V15.0015V14.9957V14.99V14.9844V14.979V14.9736V14.9684C8.31287 14.8127 8.39938 14.5837 8.60631 14.3763C8.81336 14.1688 9.04101 14.083 9.19439 14.083H9.19956H9.20476H9.20997H9.21521H9.22046H9.22574H9.23103H9.23635H9.24168H9.24704H9.25241H9.2578H9.26321H9.26864H9.27409H9.27956H9.28505H9.29055H9.29608H9.30162H9.30718H9.31276H9.31836H9.32398H9.32962H9.33527H9.34094H9.34663H9.35234H9.35807H9.36381H9.36957H9.37535H9.38115H9.38696H9.39279H9.39864H9.40451H9.41039H9.41629H9.42221H9.42815H9.4341H9.44007H9.44605H9.45205H9.45807H9.46411H9.47016H9.47622H9.48231H9.48841H9.49452H9.50065H9.5068H9.51297H9.51915H9.52534H9.53155H9.53778H9.54402H9.55027H9.55655H9.56283H9.56914H9.57545H9.58179H9.58813H9.5945H9.60087H9.60727H9.61367H9.62009H9.62653H9.63298H9.63944H9.64592H9.65241H9.65892H9.66544H9.67197H9.67852H9.68508H9.69166H9.69825H9.70485H9.71146H9.71809H9.72473H9.73139H9.73806H9.74474H9.75143H9.75814H9.76486H9.77159H9.77834H9.7851H9.79187H9.79865H9.80544H9.81225H9.81907H9.8259H9.83274H9.8396H9.84647H9.85334H9.86024H9.86714H9.87405H9.88097H9.88791H9.89486H9.90182H9.90879H9.91577H9.92276H9.92976H9.93678H9.9438H9.95084H9.95788H9.96494H9.972H9.97908H9.98617H9.99326H10.0004H10.0075H10.0146H10.0218H10.0289H10.0361H10.0432H10.0504H10.0576H10.0648H10.072H10.0792H10.0864H10.0936H10.1009H10.1081H10.1154H10.1227H10.1299H10.1372H10.1445H10.1518H10.1591H10.1664H10.1738H10.1811H10.1884H10.1958H10.2031H10.2105H10.2179H10.2253H10.2327H10.24H10.2475H10.2549H10.2623H10.2697H10.2771H10.2846H10.292H10.2995H10.3069H10.3144H10.3219H10.3294H10.3368H10.3443H10.3518H10.3593H10.3668H10.3744H10.3819H10.3894H10.3969H10.4045H10.412H10.4196H10.4271H10.4347H10.4423H10.4499H10.4574H10.465H10.4726H10.4802H10.4878H10.4954H10.503H10.5106H10.5182H10.5259H10.5335H10.5411H10.5487H10.5564H10.564H10.5717H10.5793H10.587H10.5946H10.6023H10.61H10.6176H10.6253H10.633H10.6407H10.6484H10.656H10.6637H10.6714H10.6791H10.6868H10.6945H10.7022H10.7099H10.7176H10.7253H10.7331H10.7408H10.7485H10.7562H10.7639H10.7717H10.7794H10.7871H10.7948H10.8026H10.8103H10.818H10.8258H10.8335H10.8413H10.849H10.8567H10.8645H10.8722H10.88H10.8877H10.8954H10.9032H10.9109H10.9187H10.9264H10.9342H10.9419H10.9497H10.9574H10.9652H10.9729H10.9807H10.9884H10.9962H11.0039H11.0117H11.0194H11.0271H11.0349H11.0426H11.0504H11.0581H11.0659H11.0736H11.0813H11.0891H11.0968H11.1045H11.1123H11.12H11.1277H11.1355H11.1432H11.1509H11.1586H11.1664H11.1741H11.1818H11.1895H11.1972H11.2049H11.2126H11.2203H11.228H11.2357H11.2434H11.2511H11.2588H11.2665H11.2742H11.2819H11.2895H11.2972H11.3049H11.3125H11.3202H11.3279H11.3355H11.3432H11.3508H11.3585H11.3661H11.3737H11.3814H11.389H11.3966H11.4042H11.4118H11.4194H11.4271H11.4347H11.4422H11.4498H11.4574H11.465H11.4726H11.4801H11.4877H11.4953H11.5028H11.5104H11.5179H11.5254H11.533H11.5405H11.548H11.5555H11.563H11.5705H11.578H11.5855H11.593H11.6004H11.6079H11.6154H11.6228H11.6303H11.6377H11.6451H11.6526H11.66H11.6674H11.6748H11.6822H11.6896H11.697H11.7043H11.7117H11.7191H11.7264H11.7338H11.7411H11.7484H11.7557H11.763H11.7703H11.7776H11.7849H11.7922H11.7995H11.8067H11.814H11.8212H11.8284H11.8357H11.8429H11.8501H11.8573H11.8645H11.8716H11.8788H11.8859H11.8931H11.9002H11.9074H11.9145H11.9216H11.9287H11.9358H11.9428H11.9499H11.957H11.964H11.971H11.9781H11.9851H11.9921H11.9991H12.0061H12.013H12.02H12.0269H12.0339H12.0408H12.0477H12.0546H12.0615H12.0684H12.0752H12.0821H12.0889H12.0958H12.1026H12.1094H12.1162H12.123H12.1298H12.1365H12.1433H12.15H12.1567H12.1634H12.1701H12.1768H12.1835H12.1901H12.1968H12.2034H12.21H12.2166H12.2232H12.2298H12.2363H12.2429H12.2494H12.2559H12.2624H12.2689H12.2754H12.2819H12.2883H12.2948H12.3012H12.3076H12.314H12.3203H12.3267H12.3331H12.3394H12.3457H12.352H12.3583H12.3646H12.3708H12.3771H12.3833H12.3895H12.3957H12.4019H12.408H12.4142H12.4203H12.4264H12.4325H12.4386H12.4447H12.4507H12.4568H12.4628H12.4688H12.4748H12.4807H12.4867H12.4926H12.4986H12.5045H12.5103H12.5162H12.5221H12.5279H12.5337H12.5395H12.5453H12.551H12.5568H12.5625H12.5682H12.5739H12.5796H12.5852H12.5909H12.5965H12.6021H12.6077H12.6132H12.6188H12.6243H12.6298H12.6353H12.6408H12.6462H12.6516H12.657H12.6624H12.6678H12.6732H12.6785H12.6838H12.6891H12.6944H12.6996H12.7049H12.7101H12.7153H12.7205C12.8738 14.083 13.1015 14.1688 13.3085 14.3763C13.5155 14.5837 13.602 14.8127 13.602 14.9684V18.7027V19.2916V19.5771V19.8539V20.3739V20.3893V20.4046V20.4199V20.4351V20.4502V20.4653V20.4804V20.4953V20.5103V20.5251V20.5399V20.5546V20.5693V20.5839V20.5984V20.6129V20.6273V20.6416V20.6559V20.6701V20.6843V20.6983V20.7124V20.7263V20.7402V20.754V20.7677V20.7814V20.7949V20.8085V20.8219V20.8353V20.8486V20.8618V20.875V20.888V20.901V20.914V20.9268V20.9396V20.9523V20.9548ZM6.54983 20.7919V20.801C6.2573 20.7697 5.96413 20.7353 5.67015 20.6978C4.38162 20.5335 3.55852 20.2181 3.01004 19.7731C2.47989 19.343 2.10918 18.7122 1.88842 17.7034C1.02447 13.7553 1.24285 10.2404 1.43596 8.89041C1.45604 8.85674 1.49158 8.80396 1.54908 8.73049C1.67946 8.56388 1.87854 8.34661 2.14628 8.08273C2.67909 7.55762 3.41996 6.91013 4.26573 6.21056C5.95336 4.81467 7.99944 3.25994 9.49113 2.14931C10.3904 1.47974 11.6101 1.47692 12.5118 2.14228C14.0158 3.25212 16.08 4.80864 17.7719 6.20607C18.6201 6.90663 19.3583 7.55375 19.8824 8.07723C20.146 8.34057 20.3373 8.5547 20.4585 8.71612C20.5006 8.77229 20.5283 8.81418 20.5454 8.84277C20.6411 10.2795 20.8741 13.7917 20.1005 17.7215C19.9026 18.7267 19.5349 19.3527 19.0038 19.7793C18.4507 20.2236 17.6164 20.5362 16.3247 20.6975C16.0034 20.7377 15.6835 20.7743 15.365 20.8073V20.7949V20.7814V20.7677V20.754V20.7402V20.7263V20.7124V20.6983V20.6843V20.6701V20.6559V20.6416V20.6273V20.6129V20.3739V19.8539V19.2916V18.9994V18.981V18.9626V18.9441V18.9256V18.9071V18.8886V18.8701V18.8515V18.833V18.8144V18.7958V18.7772V18.7586V18.74V18.7214V18.7027V14.9684C15.365 14.2407 15.0108 13.5862 14.5566 13.131C14.1025 12.6759 13.4486 12.32 12.7205 12.32H12.7153H12.7101H12.7049H12.6996H12.6944H12.6891H12.6838H12.6785H12.6732H12.6678H12.6624H12.657H12.6516H12.6462H12.6408H12.6353H12.6298H12.6243H12.6188H12.6132H12.6077H12.6021H12.5965H12.5909H12.5852H12.5796H12.5739H12.5682H12.5625H12.5568H12.551H12.5453H12.5395H12.5337H12.5279H12.5221H12.5162H12.5103H12.5045H12.4986H12.4926H12.4867H12.4807H12.4748H12.4688H12.4628H12.4568H12.4507H12.4447H12.4386H12.4325H12.4264H12.4203H12.4142H12.408H12.4019H12.3957H12.3895H12.3833H12.3771H12.3708H12.3646H12.3583H12.352H12.3457H12.3394H12.3331H12.3267H12.3203H12.314H12.3076H12.3012H12.2948H12.2883H12.2819H12.2754H12.2689H12.2624H12.2559H12.2494H12.2429H12.2363H12.2298H12.2232H12.2166H12.21H12.2034H12.1968H12.1901H12.1835H12.1768H12.1701H12.1634H12.1567H12.15H12.1433H12.1365H12.1298H12.123H12.1162H12.1094H12.1026H12.0958H12.0889H12.0821H12.0752H12.0684H12.0615H12.0546H12.0477H12.0408H12.0339H12.0269H12.02H12.013H12.0061H11.9991H11.9921H11.9851H11.9781H11.971H11.964H11.957H11.9499H11.9428H11.9358H11.9287H11.9216H11.9145H11.9074H11.9002H11.8931H11.8859H11.8788H11.8716H11.8645H11.8573H11.8501H11.8429H11.8357H11.8284H11.8212H11.814H11.8067H11.7995H11.7922H11.7849H11.7776H11.7703H11.763H11.7557H11.7484H11.7411H11.7338H11.7264H11.7191H11.7117H11.7043H11.697H11.6896H11.6822H11.6748H11.6674H11.66H11.6526H11.6451H11.6377H11.6303H11.6228H11.6154H11.6079H11.6004H11.593H11.5855H11.578H11.5705H11.563H11.5555H11.548H11.5405H11.533H11.5254H11.5179H11.5104H11.5028H11.4953H11.4877H11.4801H11.4726H11.465H11.4574H11.4498H11.4422H11.4347H11.4271H11.4194H11.4118H11.4042H11.3966H11.389H11.3814H11.3737H11.3661H11.3585H11.3508H11.3432H11.3355H11.3279H11.3202H11.3125H11.3049H11.2972H11.2895H11.2819H11.2742H11.2665H11.2588H11.2511H11.2434H11.2357H11.228H11.2203H11.2126H11.2049H11.1972H11.1895H11.1818H11.1741H11.1664H11.1586H11.1509H11.1432H11.1355H11.1277H11.12H11.1123H11.1045H11.0968H11.0891H11.0813H11.0736H11.0659H11.0581H11.0504H11.0426H11.0349H11.0271H11.0194H11.0117H11.0039H10.9962H10.9884H10.9807H10.9729H10.9652H10.9574H10.9497H10.9419H10.9342H10.9264H10.9187H10.9109H10.9032H10.8954H10.8877H10.88H10.8722H10.8645H10.8567H10.849H10.8413H10.8335H10.8258H10.818H10.8103H10.8026H10.7948H10.7871H10.7794H10.7717H10.7639H10.7562H10.7485H10.7408H10.7331H10.7253H10.7176H10.7099H10.7022H10.6945H10.6868H10.6791H10.6714H10.6637H10.656H10.6484H10.6407H10.633H10.6253H10.6176H10.61H10.6023H10.5946H10.587H10.5793H10.5717H10.564H10.5564H10.5487H10.5411H10.5335H10.5259H10.5182H10.5106H10.503H10.4954H10.4878H10.4802H10.4726H10.465H10.4574H10.4499H10.4423H10.4347H10.4271H10.4196H10.412H10.4045H10.3969H10.3894H10.3819H10.3744H10.3668H10.3593H10.3518H10.3443H10.3368H10.3294H10.3219H10.3144H10.3069H10.2995H10.292H10.2846H10.2771H10.2697H10.2623H10.2549H10.2475H10.24H10.2327H10.2253H10.2179H10.2105H10.2031H10.1958H10.1884H10.1811H10.1738H10.1664H10.1591H10.1518H10.1445H10.1372H10.1299H10.1227H10.1154H10.1081H10.1009H10.0936H10.0864H10.0792H10.072H10.0648H10.0576H10.0504H10.0432H10.0361H10.0289H10.0218H10.0146H10.0075H10.0004H9.99326H9.98617H9.97908H9.972H9.96494H9.95788H9.95084H9.9438H9.93678H9.92976H9.92276H9.91577H9.90879H9.90182H9.89486H9.88791H9.88097H9.87405H9.86714H9.86024H9.85334H9.84647H9.8396H9.83274H9.8259H9.81907H9.81225H9.80544H9.79865H9.79187H9.7851H9.77834H9.77159H9.76486H9.75814H9.75143H9.74474H9.73806H9.73139H9.72473H9.71809H9.71146H9.70485H9.69825H9.69166H9.68508H9.67852H9.67197H9.66544H9.65892H9.65241H9.64592H9.63944H9.63298H9.62653H9.62009H9.61367H9.60727H9.60087H9.5945H9.58813H9.58179H9.57545H9.56914H9.56283H9.55655H9.55027H9.54402H9.53778H9.53155H9.52534H9.51915H9.51297H9.5068H9.50065H9.49452H9.48841H9.48231H9.47622H9.47016H9.46411H9.45807H9.45205H9.44605H9.44007H9.4341H9.42815H9.42221H9.41629H9.41039H9.40451H9.39864H9.39279H9.38696H9.38115H9.37535H9.36957H9.36381H9.35807H9.35234H9.34663H9.34094H9.33527H9.32962H9.32398H9.31836H9.31276H9.30718H9.30162H9.29608H9.29055H9.28505H9.27956H9.27409H9.26864H9.26321H9.2578H9.25241H9.24704H9.24168H9.23635H9.23103H9.22574H9.22046H9.21521H9.20997H9.20476H9.19956H9.19439C8.46625 12.32 7.81238 12.6759 7.35829 13.131C6.90408 13.5862 6.54983 14.2407 6.54983 14.9684V14.9736V14.979V14.9844V14.99V14.9957V15.0015V15.0074V15.0135V15.0196V15.0258V15.0322V15.0387V15.0453V15.0519V15.0587V15.0656V15.0727V15.0798V15.087V15.0943V15.1018V15.1093V15.117V15.1247V15.1326V15.1405V15.1486V15.1567V15.165V15.1734V15.1818V15.1904V15.199V15.2078V15.2167V15.2256V15.2347V15.2438V15.2531V15.2624V15.2719V15.2814V15.2911V15.3008V15.3106V15.3205V15.3305V15.3406V15.3508V15.3611V15.3715V15.3819V15.3925V15.4031V15.4138V15.4247V15.4356V15.4466V15.4576V15.4688V15.4801V15.4914V15.5028V15.5143V15.5259V15.5376V15.5494V15.5612V15.5731V15.5851V15.5972V15.6094V15.6216V15.634V15.6464V15.6588V15.6714V15.684V15.6968V15.7095V15.7224V15.7354V15.7484V15.7615V15.7746V15.7879V15.8012V15.8146V15.828V15.8416V15.8552V15.8688V15.8826V15.8964V15.9103V15.9242V15.9382V15.9523V15.9665V15.9807V15.995V16.0093V16.0238V16.0382V16.0528V16.0674V16.0821V16.0968V16.1116V16.1265V16.1414V16.1564V16.1714V16.1865V16.2017V16.2169V16.2322V16.2475V16.2629V16.2784V16.2939V16.3094V16.3251V16.3407V16.3565V16.3723V16.3881V16.404V16.4199V16.4359V16.452V16.4681V16.4842V16.5004V16.5167V16.533V16.5493V16.5657V16.5822V16.5986V16.6152V16.6318V16.6484V16.6651V16.6818V16.6985V16.7153V16.7322V16.7491V16.766V16.783V16.8V16.8171V16.8342V16.8513V16.8685V16.8857V16.903V16.9203V16.9376V16.955V16.9724V16.9898V17.0073V17.0248V17.0423V17.0599V17.0775V17.0952V17.1128V17.1305V17.1483V17.1661V17.1839V17.2017V17.2196V17.2374V17.2554V17.2733V17.2913V17.3093V17.3273V17.3454V17.3635V17.3816V17.3997V17.4179V17.436V17.4542V17.4725V17.4907V17.509V17.5273V17.5456V17.5639V17.5823V17.6006V17.619V17.6374V17.6558V17.6743V17.6927V17.7112V17.7297V17.7482V17.7667V17.7853V17.8038V17.8224V17.841V17.8595V17.8781V17.8968V17.9154V17.934V17.9527V17.9713V17.99V18.0086V18.0273V18.046V18.0647V18.0834V18.1021V18.1208V18.1395V18.1582V18.177V18.1957V18.2144V18.2332V18.2519V18.2706V18.2894V18.3081V18.3268V18.3456V18.3643V18.3831V18.4018V18.4205V18.4393V18.458V18.4767V18.4954V18.5141V18.5328V18.5516V18.5702V18.5889V18.6076V18.6263V18.645V18.6636V18.6823V18.7009V18.7195V18.7382V18.7568V18.7754V18.794V18.8125V18.8311V18.8496V18.8682V18.8867V18.9052V18.9237V18.9421V18.9606V18.979V18.9974V19.0158V19.0342V19.0526V19.0709V19.0893V19.1076V19.1258V19.1441V19.1623V19.1806V19.1988V19.2169V19.2351V19.2532V19.2713V19.2894V19.3074V19.3254V19.3434V19.3614V19.3793V19.3973V19.4151V19.433V19.4508V19.4686V19.4864V19.5041V19.5218V19.5395V19.5571V19.5747V19.5923V19.6098V19.6273V19.6448V19.6622V19.6796V19.697V19.7143V19.7316V19.7488V19.766V19.7832V19.8003V19.8174V19.8344V19.8514V19.8684V19.8853V19.9022V19.919V19.9358V19.9526V19.9693V19.986V20.0026V20.0191V20.0357V20.0521V20.0686V20.0849V20.1013V20.1176V20.1338V20.15V20.1661V20.1822V20.1982V20.2142V20.2301V20.246V20.2618V20.2776V20.2933V20.309V20.3246V20.3401V20.3556V20.3711V20.3864V20.4018V20.417V20.4322V20.4474V20.4625V20.4775V20.4925V20.5074V20.5222V20.537V20.5517V20.5664V20.5809V20.5955V20.6099V20.6243V20.6387V20.6529V20.6671V20.6813V20.6953V20.7093V20.7233V20.7371V20.7509V20.7646V20.7783V20.7919ZM1.41954 8.92072C1.41947 8.92074 1.42014 8.91914 1.42178 8.91586C1.42044 8.91905 1.41962 8.92069 1.41954 8.92072ZM20.5674 8.8836C20.5673 8.8836 20.5663 8.88158 20.5647 8.87766C20.5667 8.88166 20.5674 8.88361 20.5674 8.8836Z" stroke="#F9F9F9" stroke-width="1.76304" stroke-linecap="round" stroke-linejoin="round"/>
</svg>
