<svg width="22" height="28" viewBox="0 0 22 28" fill="none" xmlns="http://www.w3.org/2000/svg">
<path d="M8.04153 24.9185C9.62827 26.4515 12.8017 26.4515 14.3885 24.9185" stroke="#F9F9F9" stroke-width="1.76304" stroke-linecap="round" stroke-linejoin="round"/>
<path fill-rule="evenodd" clip-rule="evenodd" d="M12.2714 1.98224C12.2724 1.96238 12.2728 1.94238 12.2728 1.92227C12.2728 1.28725 11.7992 0.772461 11.215 0.772461C10.6308 0.772461 10.1572 1.28725 10.1572 1.92227C10.1572 1.94239 10.1577 1.9624 10.1586 1.98227C6.61738 2.53705 3.28523 6.86591 3.8103 11.6957C4.08224 13.1736 3.22599 13.9567 2.33477 14.7717C1.49261 15.5418 0.619239 16.3404 0.637048 17.781C0.637048 19.8 1.69461 20.8942 3.2478 21.4368C3.2478 21.4368 6.09238 22.6189 11.2151 22.6189C16.3379 22.6189 19.1825 21.4368 19.1825 21.4368C20.7356 20.8942 21.7934 19.7443 21.7932 17.781C21.793 16.328 20.9202 15.5291 20.0827 14.7625C19.1954 13.9503 18.3479 13.1745 18.62 11.6957C18.7144 10.8274 18.6841 9.97526 18.5503 9.15835C18.087 9.58362 17.51 9.86722 16.8759 9.94765C16.9234 10.4384 16.9246 10.9414 16.873 11.4505C16.6857 12.5584 16.8984 13.5118 17.3664 14.3211C17.7888 15.0514 18.3945 15.6066 18.8008 15.9791L18.8166 15.9936C19.7581 16.8569 20.0301 17.1649 20.0302 17.7812C20.0303 18.4305 19.862 18.8191 19.669 19.0719C19.4658 19.338 19.1321 19.5868 18.601 19.7724L18.5529 19.7892L18.514 19.8054L18.5124 19.806L18.512 19.8062L18.5058 19.8086C18.4949 19.8129 18.4733 19.8212 18.4411 19.8331C18.3766 19.8569 18.2696 19.8947 18.1212 19.9421C17.8244 20.037 17.3622 20.1701 16.7432 20.3055C15.5056 20.5761 13.6402 20.8558 11.2151 20.8558C8.79005 20.8558 6.92463 20.5761 5.68705 20.3055C5.06806 20.1701 4.60585 20.037 4.30907 19.9421C4.16069 19.8947 4.0537 19.8569 3.9892 19.8331C3.95695 19.8212 3.93533 19.8129 3.92448 19.8086L3.91828 19.8062L3.91786 19.806L3.91707 19.8057L3.91629 19.8054L3.87734 19.7892L3.82926 19.7724C3.27774 19.5797 2.94997 19.3369 2.75534 19.0849C2.57308 18.8489 2.40008 18.4674 2.40008 17.781V17.7701L2.39995 17.7592C2.39272 17.1742 2.646 16.8775 3.59908 16.0045L3.61531 15.9896C4.0237 15.6156 4.63149 15.059 5.05631 14.3289C5.52711 13.5198 5.74531 12.5635 5.55727 11.4506C5.3465 9.37168 6.01555 7.39493 7.12736 5.93852C8.27247 4.43849 9.71997 3.68539 10.9179 3.68539H11.5124C12.2554 3.68539 13.0945 3.97513 13.8978 4.55314C14.2319 4.03157 14.695 3.61501 15.237 3.35818C14.3275 2.63069 13.3084 2.14465 12.2714 1.98224Z" fill="#F9F9F9"/>
<ellipse cx="16.5041" cy="6.52154" rx="2.11564" ry="2.29961" fill="#00B9AE"/>
</svg>
